<?xml version="1.0" encoding="UTF-8"?>
<svg version="1.1" xmlns="http://www.w3.org/2000/svg" width="1536" height="640">
<path d="M0 0 C506.88 0 1013.76 0 1536 0 C1536 211.2 1536 422.4 1536 640 C1029.12 640 522.24 640 0 640 C0 428.8 0 217.6 0 0 Z " fill="#010101" transform="translate(0,0)"/>
<path d="M0 0 C16.5 0 33 0 50 0 C56.14188615 18.42565845 56.14188615 18.42565845 58.30688477 25.83300781 C59.00232377 28.00726517 59.82829504 30.06877788 60.71484375 32.171875 C63.83745952 39.89594096 66.33747741 47.83893095 68.9375 55.75 C69.96530509 58.87050269 70.99523296 61.99029378 72.02734375 65.109375 C72.2773967 65.86566696 72.52744965 66.62195892 72.78507996 67.40116882 C74.74323612 73.29470936 76.81116068 79.14140671 78.94238281 84.97485352 C83 96.58102493 83 96.58102493 83 102 C85.90669885 99.47347032 87.32114096 96.68877564 89.00390625 93.25 C89.57439697 92.09419434 90.1448877 90.93838867 90.73266602 89.74755859 C91.03101349 89.13644226 91.32936096 88.52532593 91.63674927 87.89569092 C93.2035702 84.68725899 94.79009233 81.48858806 96.375 78.2890625 C96.68913345 77.65376617 97.00326691 77.01846985 97.32691956 76.36392212 C99.82477345 71.32317623 102.41253367 66.3370398 105.0625 61.375 C109.02534005 53.93809212 112.81104174 46.4205897 116.5625 38.875 C123.09262048 25.74714368 129.8788452 12.81807865 137 0 C153.5 0 170 0 187 0 C187 13.37440306 187 13.37440306 186.1171875 19.828125 C184.88446622 29.41187899 184.12365496 39.02003111 183.36837769 48.65139771 C182.94489993 54.04297313 182.50953509 59.43358818 182.07421875 64.82421875 C181.94126152 66.47278114 181.94126152 66.47278114 181.80561829 68.15464783 C180.90281897 79.29535215 179.93201958 90.42964957 178.9375 101.5625 C178.81310043 102.95770874 178.81310043 102.95770874 178.68618774 104.38110352 C177.85410719 113.69779945 177.00550887 123.01270833 176.1171875 132.32421875 C176.01347588 133.41453148 176.01347588 133.41453148 175.90766907 134.52687073 C175.59349161 137.82513565 175.27576058 141.12292623 174.95092773 144.42016602 C174.06378379 153.62067618 173.54403063 162.75147923 173 172 C160.46 172 147.92 172 135 172 C136.49936901 150.70745321 138.36128758 129.46339476 140.32397461 108.20953369 C140.95796367 101.33996692 141.58816273 94.47005218 142.21772575 87.60007858 C142.4344317 85.24001952 142.65248347 82.88008796 142.8707428 80.52017212 C143.65392486 72.01866148 144.37684015 63.51499078 145 55 C138.03452883 68.12474911 138.03452883 68.12474911 131.3125 81.375 C121.9515164 100.24740292 112.09708588 118.87797659 102.25 137.5 C101.66221771 138.61287384 101.66221771 138.61287384 101.06256104 139.74822998 C99.94436976 141.86426618 98.82412982 143.97920323 97.703125 146.09375 C97.37249054 146.71959991 97.04185608 147.34544983 96.70120239 147.99026489 C95.81109191 149.66568425 94.90603463 151.3331383 94 153 C93.53843506 153.95737061 93.07687012 154.91474121 92.60131836 155.90112305 C91 158 91 158 88.5480957 158.56762695 C87.12630005 158.52835083 87.12630005 158.52835083 85.67578125 158.48828125 C84.13374023 158.46411133 84.13374023 158.46411133 82.56054688 158.43945312 C81.48869141 158.39755859 80.41683594 158.35566406 79.3125 158.3125 C77.68731445 158.27866211 77.68731445 158.27866211 76.02929688 158.24414062 C73.35148095 158.1851579 70.67642973 158.10290307 68 158 C67.47829224 156.46460571 67.47829224 156.46460571 66.94604492 154.89819336 C65.64609102 151.07481457 64.34249771 147.2526848 63.0378418 143.4309082 C62.47533551 141.78150348 61.91379642 140.13176856 61.35327148 138.48168945 C60.54409169 136.10018341 59.7313585 133.71991471 58.91796875 131.33984375 C58.67096725 130.61039047 58.42396576 129.88093719 58.16947937 129.12937927 C57.03869742 125.83064254 55.84283094 122.6337558 54.46606445 119.42553711 C52.97536839 115.94244693 51.77565708 112.46039764 50.625 108.8515625 C50.41439941 108.1947348 50.20379883 107.5379071 49.98681641 106.86117554 C49.32132665 104.78346251 48.66049654 102.70430508 48 100.625 C47.12601107 97.88769743 46.25043659 95.15090238 45.375 92.4140625 C45.16593018 91.75992874 44.95686035 91.10579498 44.74145508 90.43183899 C41.65916205 80.6432271 41.65916205 80.6432271 38 71.0625 C35.98741085 66.13165658 34.45638963 61.11783254 33 56 C30.95352036 66.39825839 30.19434843 76.8251128 29.4375 87.375 C29.31104474 89.08076615 29.18409425 90.78649566 29.05664062 92.4921875 C28.59626278 98.68379895 28.14468228 104.87598444 27.71875 111.07006836 C27.30784743 117.00642519 26.84214114 122.90552164 26.125 128.8125 C24.44216579 143.17467681 23.2878548 157.59944175 22 172 C9.79 172 -2.42 172 -15 172 C-12.24813182 132.10766974 -12.24813182 132.10766974 -10.5 116.9375 C-9.10904778 104.84537982 -8.18564185 92.74102458 -7.31451416 80.60299683 C-6.39094744 67.76152179 -5.27792452 54.95660264 -3.98657227 42.14697266 C-3.34993877 35.78744207 -2.78563881 29.44407982 -2.4375 23.0625 C-1.95954693 15.34697193 -0.95882791 7.67062328 0 0 Z " fill="#FAFBFB" transform="translate(817,235)"/>
<path d="M0 0 C44.22 0 88.44 0 134 0 C134 10.13943809 134 10.13943809 133.59765625 14.3671875 C133.51193359 15.27210938 133.42621094 16.17703125 133.33789062 17.109375 C133.24701172 18.02203125 133.15613281 18.9346875 133.0625 19.875 C132.93198242 21.27878906 132.93198242 21.27878906 132.79882812 22.7109375 C132.12963051 29.61110847 132.12963051 29.61110847 131 33 C99.32 33 67.64 33 35 33 C35 38.28 35 43.56 35 49 C34.34 55.6 33.68 62.2 33 69 C60.39 69 87.78 69 116 69 C116 89 116 89 114 102 C85.95 102 57.9 102 29 102 C29 106.95 29 111.9 29 117 C28.34 124.26 27.68 131.52 27 139 C59.34 139 91.68 139 125 139 C124 157 124 157 122 172 C76.79 172 31.58 172 -15 172 C-13.84206678 152.31513531 -13.84206678 152.31513531 -12.99755859 143.03829956 C-12.90652863 142.0335087 -12.90652863 142.0335087 -12.81365967 141.00841904 C-12.75140198 140.32243763 -12.68914429 139.63645622 -12.625 138.9296875 C-12.49413023 137.46861291 -12.36343758 136.00752245 -12.23291016 134.54641724 C-11.96225018 131.52298235 -11.68983364 128.49971297 -11.41601562 125.4765625 C-11.06666381 121.61840067 -10.72133335 117.75989134 -10.37722778 113.90125847 C-10.10924383 110.90017125 -9.839425 107.89925121 -9.56903076 104.89838028 C-9.44095984 103.47517502 -9.31338608 102.05192492 -9.18634033 100.62862778 C-9.0088609 98.6440191 -8.82869946 96.65965084 -8.6484375 94.67529297 C-8.54708496 93.55186493 -8.44573242 92.42843689 -8.34130859 91.27096558 C-7.98242552 87.8315732 -7.49675351 84.42188551 -7 81 C-6.81108076 78.81430937 -6.64473129 76.62656073 -6.5 74.4375 C-6.4175 73.22835937 -6.335 72.01921875 -6.25 70.7734375 C-6.12625 68.90558594 -6.12625 68.90558594 -6 67 C-5.53299602 59.95115874 -5.01378906 52.99274976 -4 46 C-3.54441354 40.64709692 -3.2000458 35.28567783 -2.83789062 29.92578125 C-2.13194186 19.90475251 -1.05408576 10.01381476 0 0 Z " fill="#FAFAFB" transform="translate(652,235)"/>
<path d="M0 0 C16.5 0 33 0 50 0 C50 3.96 50 7.92 50 12 C49.67 12 49.34 12 49 12 C49 8.37 49 4.74 49 1 C42.34272334 1.0686904 35.68608604 1.15656529 29.02929688 1.26245117 C26.76341829 1.29576336 24.49745546 1.32377545 22.23144531 1.34643555 C18.9794515 1.37986593 15.72823415 1.43217562 12.4765625 1.48828125 C11.45881744 1.49467117 10.44107239 1.5010611 9.39248657 1.50764465 C7.98125015 1.53733589 7.98125015 1.53733589 6.54150391 1.56762695 C5.71099518 1.57873001 4.88048645 1.58983307 4.02481079 1.60127258 C3.02252945 1.79864265 3.02252945 1.79864265 2 2 C1.01 3.485 1.01 3.485 0 5 C-0.66 5 -1.32 5 -2 5 C-1.34 3.35 -0.68 1.7 0 0 Z " fill="#D2D4D1" transform="translate(954,235)"/>
<path d="M0 0 C0.33 0 0.66 0 1 0 C0.67 4.62 0.34 9.24 0 14 C-0.33 13.01 -0.66 12.02 -1 11 C-1.66 11 -2.32 11 -3 11 C-3.75 9.4375 -3.75 9.4375 -4 7 C-2.86915563 4.49713591 -1.47860484 2.32992278 0 0 Z " fill="#252925" transform="translate(962,289)"/>
<path d="M0 0 C1 3 1 3 -0.25 6.625 C-2 10 -2 10 -5 11 C-3.55049545 7.2089881 -1.84827434 3.6125362 0 0 Z " fill="#1F2122" transform="translate(957,298)"/>
</svg>
